G04 ================== begin FILE IDENTIFICATION RECORD ==================*
G04 Layout Name:  D:\AShrisha_design\sampath\ZIG_BE_ADD_ON\pcb\xbee_addon-3.brd*
G04 Film Name:    DRILL_CHART*
G04 File Format:  Gerber RS274X*
G04 File Origin:  15.2-p002*
G04 Origin Date:  Wed Mar 12 15:10:53 2014*
G04 ================== end FILE IDENTIFICATION RECORD ====================*
%FSLAX53Y53*MOIN*%
%IR0*IPPOS*OFA0.00000B0.00000*MIA0B0*SFA1.00000B1.00000*%
%AMMACRO12*
1,1,.01,.016,0.0*
20,1,.01,.016,0.0,-.016,0.0,0.0*
1,1,.01,-.016,0.0*
1,1,.01,0.0,.016*
20,1,.01,0.0,.016,0.0,-.016,0.0*
1,1,.01,0.0,-.016*
1,1,.01,.001333,0.0*
20,1,.01,.001333,0.0,.008,.016,0.0*
1,1,.01,.008,.016*
20,1,.01,.008,.016,.014667,0.0,0.0*
1,1,.01,.014667,0.0*
1,1,.01,.012266,.0056*
20,1,.01,.012266,.0056,.003733,.0056,0.0*
1,1,.01,.003733,.0056*
%
%ADD12MACRO12*%
%AMMACRO11*
1,1,.01,.02,.02*
20,1,.01,.02,.02,.02,-.02,0.0*
1,1,.01,.02,-.02*
20,1,.01,.02,-.02,-.02,-.02,0.0*
1,1,.01,-.02,-.02*
20,1,.01,-.02,-.02,-.02,.02,0.0*
1,1,.01,-.02,.02*
20,1,.01,-.02,.02,.02,.02,0.0*
1,1,.01,.02,.02*
1,1,.01,.002666,.000667*
20,1,.01,.002666,.000667,.004,.001667,0.0*
1,1,.01,.004,.001667*
20,1,.01,.004,.001667,.005,.003333,0.0*
1,1,.01,.005,.003333*
20,1,.01,.005,.003333,.005667,.005667,0.0*
1,1,.01,.005667,.005667*
20,1,.01,.005667,.005667,.005,.007667,0.0*
1,1,.01,.005,.007667*
20,1,.01,.005,.007667,.003667,.009,0.0*
1,1,.01,.003667,.009*
20,1,.01,.003667,.009,.001333,.01,0.0*
1,1,.01,.001333,.01*
20,1,.01,.001333,.01,-.007667,.01,0.0*
1,1,.01,-.007667,.01*
20,1,.01,-.007667,.01,-.007667,-.01,0.0*
1,1,.01,-.007667,-.01*
20,1,.01,-.007667,-.01,.003334,-.01,0.0*
1,1,.01,.003334,-.01*
20,1,.01,.003334,-.01,.005667,-.008667,0.0*
1,1,.01,.005667,-.008667*
20,1,.01,.005667,-.008667,.007,-.006667,0.0*
1,1,.01,.007,-.006667*
20,1,.01,.007,-.006667,.007667,-.004333,0.0*
1,1,.01,.007667,-.004333*
20,1,.01,.007667,-.004333,.007,-.002,0.0*
1,1,.01,.007,-.002*
20,1,.01,.007,-.002,.005,0.0,0.0*
1,1,.01,.005,0.0*
20,1,.01,.005,0.0,.002666,.000667,0.0*
1,1,.01,.002666,.000667*
20,1,.01,.002666,.000667,-.007667,.000667,0.0*
1,1,.01,-.007667,.000667*
%
%ADD11MACRO11*%
%AMMACRO10*
1,1,.01,0.0,.0625*
20,1,.01,0.0,.0625,-.054127,.03125,0.0*
1,1,.01,-.054127,.03125*
20,1,.01,-.054127,.03125,-.054127,-.03125,0.0*
1,1,.01,-.054127,-.03125*
20,1,.01,-.054127,-.03125,0.0,-.0625,0.0*
1,1,.01,0.0,-.0625*
20,1,.01,0.0,-.0625,.054127,-.03125,0.0*
1,1,.01,.054127,-.03125*
20,1,.01,.054127,-.03125,.054127,.03125,0.0*
1,1,.01,.054127,.03125*
20,1,.01,.054127,.03125,0.0,.0625,0.0*
1,1,.01,0.0,.0625*
1,1,.01,-.022917,-.03125*
20,1,.01,-.022917,-.03125,-.022917,.03125,0.0*
1,1,.01,-.022917,.03125*
20,1,.01,-.022917,.03125,-.002084,.03125,0.0*
1,1,.01,-.002084,.03125*
20,1,.01,-.002084,.03125,.00625,.028124,0.0*
1,1,.01,.00625,.028124*
20,1,.01,.00625,.028124,.0125,.023958,0.0*
1,1,.01,.0125,.023958*
20,1,.01,.0125,.023958,.017709,.017709,0.0*
1,1,.01,.017709,.017709*
20,1,.01,.017709,.017709,.021875,.010415,0.0*
1,1,.01,.021875,.010415*
20,1,.01,.021875,.010415,.022917,-.000001,0.0*
1,1,.01,.022917,-.000001*
20,1,.01,.022917,-.000001,.021875,-.010417,0.0*
1,1,.01,.021875,-.010417*
20,1,.01,.021875,-.010417,.017709,-.017709,0.0*
1,1,.01,.017709,-.017709*
20,1,.01,.017709,-.017709,.0125,-.02396,0.0*
1,1,.01,.0125,-.02396*
20,1,.01,.0125,-.02396,.00625,-.028126,0.0*
1,1,.01,.00625,-.028126*
20,1,.01,.00625,-.028126,-.002084,-.03125,0.0*
1,1,.01,-.002084,-.03125*
20,1,.01,-.002084,-.03125,-.022917,-.03125,0.0*
1,1,.01,-.022917,-.03125*
%
%ADD10MACRO10*%
%AMMACRO13*
1,1,.01,.026,0.0*
20,1,.01,.026,0.0,.013,.022517,0.0*
1,1,.01,.013,.022517*
20,1,.01,.013,.022517,-.013,.022517,0.0*
1,1,.01,-.013,.022517*
20,1,.01,-.013,.022517,-.026,0.0,0.0*
1,1,.01,-.026,0.0*
20,1,.01,-.026,0.0,-.013,-.022517,0.0*
1,1,.01,-.013,-.022517*
20,1,.01,-.013,-.022517,.013,-.022517,0.0*
1,1,.01,.013,-.022517*
20,1,.01,.013,-.022517,.026,0.0,0.0*
1,1,.01,.026,0.0*
1,1,.01,.009533,.010833*
20,1,.01,.009533,.010833,.006933,.012134,0.0*
1,1,.01,.006933,.012134*
20,1,.01,.006933,.012134,.0039,.013,0.0*
1,1,.01,.0039,.013*
20,1,.01,.0039,.013,.000434,.013,0.0*
1,1,.01,.000434,.013*
20,1,.01,.000434,.013,-.003467,.011699,0.0*
1,1,.01,-.003467,.011699*
20,1,.01,-.003467,.011699,-.0065,.009533,0.0*
1,1,.01,-.0065,.009533*
20,1,.01,-.0065,.009533,-.008667,.006933,0.0*
1,1,.01,-.008667,.006933*
20,1,.01,-.008667,.006933,-.010401,.0026,0.0*
1,1,.01,-.010401,.0026*
20,1,.01,-.010401,.0026,-.010834,-.0013,0.0*
1,1,.01,-.010834,-.0013*
20,1,.01,-.010834,-.0013,-.009967,-.0052,0.0*
1,1,.01,-.009967,-.0052*
20,1,.01,-.009967,-.0052,-.008667,-.0078,0.0*
1,1,.01,-.008667,-.0078*
20,1,.01,-.008667,-.0078,-.006067,-.010401,0.0*
1,1,.01,-.006067,-.010401*
20,1,.01,-.006067,-.010401,-.003033,-.012134,0.0*
1,1,.01,-.003033,-.012134*
20,1,.01,-.003033,-.012134,0.0,-.013,0.0*
1,1,.01,0.0,-.013*
20,1,.01,0.0,-.013,.003033,-.013,0.0*
1,1,.01,.003033,-.013*
20,1,.01,.003033,-.013,.006067,-.012134,0.0*
1,1,.01,.006067,-.012134*
20,1,.01,.006067,-.012134,.008667,-.010834,0.0*
1,1,.01,.008667,-.010834*
20,1,.01,.008667,-.010834,.010834,-.009101,0.0*
1,1,.01,.010834,-.009101*
%
%ADD13MACRO13*%
%ADD14C,.01*%
G75*
%LPD*%
G75*
G54D10*
X125Y125D03*
Y1075D03*
X400Y1880D03*
X2250Y125D03*
Y1075D03*
G54D11*
X429Y175D03*
X350D03*
Y1041D03*
X429D03*
X400Y2442D03*
X744Y175D03*
X665D03*
X586D03*
X507D03*
Y1041D03*
X586D03*
X665D03*
X744D03*
X1059Y175D03*
X980D03*
X901D03*
X822D03*
Y1041D03*
X901D03*
X980D03*
X1059D03*
G54D12*
X475Y400D03*
X275D03*
X475Y675D03*
X400Y2722D03*
X650Y625D03*
X475Y775D03*
X650Y825D03*
X1175Y625D03*
Y825D03*
X1550Y175D03*
Y75D03*
X1400Y325D03*
X1500Y275D03*
Y600D03*
Y400D03*
X1400Y725D03*
X1500Y700D03*
Y900D03*
Y800D03*
X1550Y1075D03*
Y975D03*
X1900Y275D03*
Y600D03*
Y400D03*
Y700D03*
Y900D03*
Y800D03*
X1700Y1075D03*
Y975D03*
X1850Y1075D03*
Y975D03*
X2000Y1075D03*
Y975D03*
G54D13*
X400Y2160D03*
X2475Y300D03*
Y500D03*
Y700D03*
Y900D03*
G54D14*
G01X0Y0D02*
X2675D01*
Y1200D01*
X0D01*
Y0D01*
G01X157Y1300D02*
X0Y1275D01*
X157Y1250D01*
Y1300D01*
G01X1224Y1275D02*
X0D01*
G01Y1298D02*
Y1373D01*
G01X1270Y1271D02*
X1275Y1276D01*
X1279Y1280D01*
X1284Y1281D01*
X1289Y1280D01*
X1292Y1276D01*
X1295Y1272D01*
X1296Y1267D01*
X1295Y1262D01*
X1292Y1258D01*
X1288Y1254D01*
X1284Y1252D01*
X1278Y1254D01*
X1274Y1258D01*
X1271Y1265D01*
X1270Y1273D01*
X1272Y1282D01*
X1274Y1288D01*
X1277Y1293D01*
X1282Y1297D01*
X1286Y1298D01*
X1291Y1296D01*
X1294Y1292D01*
G01X1328Y1252D02*
X1329Y1262D01*
X1331Y1270D01*
X1334Y1278D01*
X1337Y1286D01*
X1342Y1298D01*
X1316D01*
G01X1375Y1251D02*
X1374Y1252D01*
Y1253D01*
X1375Y1254D01*
X1376Y1253D01*
Y1252D01*
X1375Y1251D01*
G01X1410Y1258D02*
X1414Y1254D01*
X1420Y1252D01*
X1425Y1254D01*
X1430Y1258D01*
X1433Y1265D01*
X1434Y1272D01*
Y1280D01*
X1433Y1287D01*
X1430Y1293D01*
X1426Y1296D01*
X1421Y1298D01*
X1416Y1296D01*
X1412Y1293D01*
X1409Y1289D01*
X1408Y1282D01*
X1409Y1277D01*
X1412Y1272D01*
X1416Y1269D01*
X1421Y1268D01*
X1426Y1270D01*
X1430Y1274D01*
X1434Y1280D01*
G01X1452Y1259D02*
X1456Y1255D01*
X1461Y1253D01*
X1467Y1252D01*
X1473Y1254D01*
X1478Y1257D01*
X1481Y1262D01*
X1482Y1268D01*
X1480Y1274D01*
X1477Y1278D01*
X1472Y1281D01*
X1468Y1282D01*
X1463Y1281D01*
X1457Y1278D01*
X1459Y1298D01*
X1477D01*
G01X1526Y1275D02*
X2675D01*
G01X2518Y1250D02*
X2675Y1275D01*
X2518Y1300D01*
Y1250D01*
G01X2773Y0D02*
X3123D01*
G01X2773Y1200D02*
X3123D01*
G01X2675Y1298D02*
Y1373D01*
G01X3000Y157D02*
X3025Y0D01*
X3050Y157D01*
X3000D01*
G01X3025Y464D02*
Y0D01*
G01Y586D02*
Y1200D01*
G01X2918Y511D02*
X2922Y506D01*
X2928Y503D01*
X2934Y503D01*
X2939Y503D01*
X2944Y507D01*
X2948Y511D01*
X2948Y516D01*
X2947Y521D01*
X2942Y525D01*
X2938Y526D01*
X2932D01*
G01X2938D02*
X2942Y529D01*
X2945Y532D01*
X2946Y537D01*
X2945Y542D01*
X2942Y545D01*
X2936Y548D01*
X2930Y547D01*
X2924Y544D01*
G01X2979Y548D02*
X2974Y546D01*
X2970Y542D01*
X2967Y538D01*
X2965Y532D01*
X2964Y525D01*
X2965Y518D01*
X2967Y512D01*
X2970Y508D01*
X2974Y504D01*
X2979Y503D01*
X2984Y504D01*
X2988Y508D01*
X2991Y512D01*
X2993Y518D01*
X2994Y525D01*
X2993Y532D01*
X2991Y538D01*
X2988Y542D01*
X2984Y546D01*
X2979Y548D01*
G01X3025Y501D02*
X3024Y502D01*
Y503D01*
X3025Y504D01*
X3026Y503D01*
Y502D01*
X3025Y501D01*
G01X3079Y503D02*
Y548D01*
X3054Y515D01*
X3088D01*
G01X3117Y503D02*
X3122Y503D01*
X3127Y505D01*
X3130Y509D01*
X3132Y514D01*
X3130Y520D01*
X3126Y524D01*
X3120Y526D01*
X3114D01*
X3110Y528D01*
X3106Y532D01*
X3105Y537D01*
X3107Y542D01*
X3112Y546D01*
X3117Y548D01*
X3122Y546D01*
X3127Y542D01*
X3129Y537D01*
X3128Y532D01*
X3124Y528D01*
X3120Y526D01*
X3114D01*
X3108Y524D01*
X3104Y520D01*
X3102Y514D01*
X3104Y509D01*
X3107Y505D01*
X3112Y503D01*
X3117Y503D01*
G01X3050Y1043D02*
X3025Y1200D01*
X3000Y1043D01*
X3050D01*
G01X-50Y1739D02*
Y3675D01*
X4786D01*
Y1739D01*
X-50D01*
G01Y2020D02*
X4786D01*
G01X-50Y2301D02*
X4786D01*
G01X-50Y2582D02*
X4786D01*
G01X-50Y2863D02*
X4786D01*
G01X60Y2956D02*
Y3082D01*
X119D01*
G01X97Y3021D02*
X60D01*
G01X195Y3082D02*
X232D01*
G01X213D02*
Y2956D01*
G01X195D02*
X232D01*
G01X347Y3019D02*
X378D01*
Y2981D01*
X368Y2969D01*
X358Y2961D01*
X342Y2956D01*
X327Y2961D01*
X316Y2969D01*
X306Y2981D01*
X300Y2996D01*
X297Y3013D01*
Y3027D01*
X300Y3040D01*
X306Y3054D01*
X316Y3067D01*
X325Y3075D01*
X337Y3082D01*
X348D01*
X361Y3077D01*
X370Y3069D01*
G01X427Y3082D02*
Y2992D01*
X434Y2973D01*
X446Y2961D01*
X461Y2956D01*
X477Y2961D01*
X489Y2973D01*
X496Y2992D01*
Y3082D01*
G01X554Y2956D02*
Y3082D01*
X593D01*
X606Y3075D01*
X613Y3067D01*
X616Y3050D01*
X613Y3034D01*
X604Y3023D01*
X593Y3017D01*
X554D01*
G01X593D02*
X616Y2956D01*
G01X740D02*
X678D01*
Y3082D01*
X740D01*
G01X716Y3021D02*
X678D01*
G01X-50Y3144D02*
X4786D01*
G01X-50Y3425D02*
X4786D01*
G01X655Y3238D02*
X694Y3363D01*
X733Y3238D01*
G01X719Y3281D02*
X669D01*
G01X787Y3363D02*
Y3238D01*
X849D01*
G01X911Y3363D02*
Y3238D01*
X973D01*
G01X1156Y3363D02*
Y3273D01*
X1162Y3254D01*
X1174Y3242D01*
X1190Y3238D01*
X1206Y3242D01*
X1218Y3254D01*
X1224Y3273D01*
Y3363D01*
G01X1278Y3238D02*
Y3363D01*
X1350Y3238D01*
Y3363D01*
G01X1419D02*
X1457D01*
G01X1438D02*
Y3238D01*
G01X1419D02*
X1457D01*
G01X1562Y3363D02*
Y3238D01*
G01X1526Y3363D02*
X1598D01*
G01X1653Y3254D02*
X1666Y3244D01*
X1680Y3238D01*
X1692D01*
X1705Y3244D01*
X1714Y3254D01*
X1719Y3269D01*
X1715Y3283D01*
X1708Y3296D01*
X1694Y3304D01*
X1675Y3308D01*
X1664Y3317D01*
X1660Y3331D01*
X1663Y3346D01*
X1670Y3356D01*
X1681Y3363D01*
X1692D01*
X1703Y3358D01*
X1712Y3348D01*
G01X1895Y3238D02*
X1934Y3363D01*
X1973Y3238D01*
G01X1959Y3281D02*
X1909D01*
G01X2027Y3238D02*
Y3363D01*
X2066D01*
X2078Y3356D01*
X2086Y3348D01*
X2089Y3331D01*
X2086Y3315D01*
X2077Y3304D01*
X2066Y3298D01*
X2027D01*
G01X2066D02*
X2089Y3238D01*
G01X2213D02*
X2151D01*
Y3363D01*
X2213D01*
G01X2188Y3302D02*
X2151D01*
G01X2411Y3363D02*
X2449D01*
G01X2430D02*
Y3238D01*
G01X2411D02*
X2449D01*
G01X2518D02*
Y3363D01*
X2590Y3238D01*
Y3363D01*
G01X2762Y3238D02*
Y3363D01*
X2802Y3258D01*
X2842Y3363D01*
Y3238D01*
G01X2907Y3363D02*
X2945D01*
G01X2926D02*
Y3238D01*
G01X2907D02*
X2945D01*
G01X3019Y3363D02*
Y3238D01*
X3081D01*
G01X3143Y3363D02*
Y3238D01*
X3205D01*
G01X3279Y3363D02*
X3317D01*
G01X3298D02*
Y3238D01*
G01X3279D02*
X3317D01*
G01X3382D02*
Y3363D01*
X3422Y3258D01*
X3462Y3363D01*
Y3238D01*
G01X3577D02*
X3515D01*
Y3363D01*
X3577D01*
G01X3552Y3302D02*
X3515D01*
G01X3670Y3363D02*
Y3238D01*
G01X3634Y3363D02*
X3706D01*
G01X3825Y3238D02*
X3763D01*
Y3363D01*
X3825D01*
G01X3800Y3302D02*
X3763D01*
G01X3887Y3238D02*
Y3363D01*
X3926D01*
X3938Y3356D01*
X3946Y3348D01*
X3949Y3331D01*
X3946Y3315D01*
X3937Y3304D01*
X3926Y3298D01*
X3887D01*
G01X3926D02*
X3949Y3238D01*
G01X4009Y3254D02*
X4022Y3244D01*
X4036Y3238D01*
X4048D01*
X4061Y3244D01*
X4070Y3254D01*
X4075Y3269D01*
X4071Y3283D01*
X4064Y3296D01*
X4050Y3304D01*
X4031Y3308D01*
X4020Y3317D01*
X4016Y3331D01*
X4019Y3346D01*
X4026Y3356D01*
X4037Y3363D01*
X4048D01*
X4059Y3358D01*
X4068Y3348D01*
G01X849Y3144D02*
Y1739D01*
G01X784Y3488D02*
Y3613D01*
X815D01*
X827Y3606D01*
X837Y3598D01*
X844Y3585D01*
X851Y3571D01*
X852Y3550D01*
X851Y3529D01*
X844Y3515D01*
X837Y3502D01*
X827Y3494D01*
X815Y3488D01*
X784D01*
G01X911D02*
Y3613D01*
X950D01*
X962Y3606D01*
X970Y3598D01*
X973Y3581D01*
X970Y3565D01*
X961Y3554D01*
X950Y3548D01*
X911D01*
G01X950D02*
X973Y3488D01*
G01X1047Y3613D02*
X1085D01*
G01X1066D02*
Y3488D01*
G01X1047D02*
X1085D01*
G01X1159Y3613D02*
Y3488D01*
X1221D01*
G01X1283Y3613D02*
Y3488D01*
X1345D01*
G01X1596Y3602D02*
X1587Y3608D01*
X1576Y3613D01*
X1564D01*
X1550Y3606D01*
X1539Y3596D01*
X1531Y3583D01*
X1525Y3562D01*
X1523Y3544D01*
X1526Y3525D01*
X1531Y3512D01*
X1540Y3500D01*
X1551Y3492D01*
X1562Y3488D01*
X1573D01*
X1584Y3492D01*
X1593Y3498D01*
X1601Y3506D01*
G01X1653Y3488D02*
Y3613D01*
G01X1719D02*
Y3488D01*
G01Y3550D02*
X1653D01*
G01X1771Y3488D02*
X1810Y3613D01*
X1849Y3488D01*
G01X1835Y3531D02*
X1785D01*
G01X1903Y3488D02*
Y3613D01*
X1942D01*
X1954Y3606D01*
X1962Y3598D01*
X1965Y3581D01*
X1962Y3565D01*
X1953Y3554D01*
X1942Y3548D01*
X1903D01*
G01X1942D02*
X1965Y3488D01*
G01X2058Y3613D02*
Y3488D01*
G01X2022Y3613D02*
X2094D01*
G01X2182Y3483D02*
X2179Y3485D01*
Y3490D01*
X2182Y3492D01*
X2185Y3490D01*
Y3485D01*
X2182Y3483D01*
G01Y3540D02*
X2179Y3542D01*
Y3546D01*
X2182Y3548D01*
X2185Y3546D01*
Y3542D01*
X2182Y3540D01*
G01X2430Y3613D02*
Y3488D01*
G01X2394Y3613D02*
X2466D01*
G01X2554Y3488D02*
X2542Y3490D01*
X2531Y3498D01*
X2521Y3510D01*
X2515Y3525D01*
X2512Y3542D01*
Y3558D01*
X2515Y3575D01*
X2521Y3590D01*
X2531Y3602D01*
X2542Y3610D01*
X2554Y3613D01*
X2566Y3610D01*
X2577Y3602D01*
X2587Y3590D01*
X2593Y3575D01*
X2596Y3558D01*
Y3542D01*
X2593Y3525D01*
X2587Y3510D01*
X2577Y3498D01*
X2566Y3490D01*
X2554Y3488D01*
G01X2647D02*
Y3613D01*
X2684D01*
X2697Y3606D01*
X2706Y3592D01*
X2709Y3575D01*
X2706Y3558D01*
X2698Y3546D01*
X2684Y3540D01*
X2647D01*
G01X2926Y3613D02*
Y3488D01*
G01X2904Y3571D02*
X2948D01*
G01X3050Y3488D02*
X3041Y3490D01*
X3031Y3498D01*
X3025Y3512D01*
X3022Y3529D01*
X3025Y3546D01*
X3031Y3560D01*
X3041Y3569D01*
X3050Y3571D01*
X3059Y3569D01*
X3069Y3560D01*
X3075Y3546D01*
X3076Y3529D01*
X3075Y3512D01*
X3069Y3498D01*
X3059Y3490D01*
X3050Y3488D01*
G01X3310Y3554D02*
X3317Y3560D01*
X3321Y3571D01*
X3324Y3585D01*
X3321Y3598D01*
X3315Y3606D01*
X3304Y3613D01*
X3262D01*
Y3488D01*
X3314D01*
X3324Y3496D01*
X3331Y3508D01*
X3334Y3523D01*
X3331Y3537D01*
X3321Y3550D01*
X3310Y3554D01*
X3262D01*
G01X3422Y3488D02*
X3410Y3490D01*
X3399Y3498D01*
X3389Y3510D01*
X3383Y3525D01*
X3380Y3542D01*
Y3558D01*
X3383Y3575D01*
X3389Y3590D01*
X3399Y3602D01*
X3410Y3610D01*
X3422Y3613D01*
X3434Y3610D01*
X3445Y3602D01*
X3455Y3590D01*
X3461Y3575D01*
X3464Y3558D01*
Y3542D01*
X3461Y3525D01*
X3455Y3510D01*
X3445Y3498D01*
X3434Y3490D01*
X3422Y3488D01*
G01X3546Y3613D02*
Y3488D01*
G01X3510Y3613D02*
X3582D01*
G01X3670D02*
Y3488D01*
G01X3634Y3613D02*
X3706D01*
G01X3794Y3488D02*
X3782Y3490D01*
X3771Y3498D01*
X3761Y3510D01*
X3755Y3525D01*
X3752Y3542D01*
Y3558D01*
X3755Y3575D01*
X3761Y3590D01*
X3771Y3602D01*
X3782Y3610D01*
X3794Y3613D01*
X3806Y3610D01*
X3817Y3602D01*
X3827Y3590D01*
X3833Y3575D01*
X3836Y3558D01*
Y3542D01*
X3833Y3525D01*
X3827Y3510D01*
X3817Y3498D01*
X3806Y3490D01*
X3794Y3488D01*
G01X3878D02*
Y3613D01*
X3918Y3508D01*
X3958Y3613D01*
Y3488D01*
G01X1512Y1842D02*
X1522Y1827D01*
X1534Y1819D01*
X1548Y1817D01*
X1560Y1819D01*
X1573Y1829D01*
X1581Y1842D01*
X1582Y1854D01*
X1579Y1869D01*
X1568Y1879D01*
X1557Y1884D01*
X1543D01*
G01X1557D02*
X1567Y1890D01*
X1574Y1900D01*
X1578Y1913D01*
X1574Y1925D01*
X1567Y1936D01*
X1553Y1942D01*
X1539Y1940D01*
X1525Y1932D01*
G01X1670Y1813D02*
X1667Y1815D01*
Y1819D01*
X1670Y1821D01*
X1674Y1819D01*
Y1815D01*
X1670Y1813D01*
G01X1765Y1921D02*
X1774Y1934D01*
X1785Y1940D01*
X1798Y1942D01*
X1813Y1938D01*
X1824Y1927D01*
X1827Y1915D01*
X1826Y1902D01*
X1819Y1892D01*
X1788Y1871D01*
X1774Y1857D01*
X1765Y1836D01*
X1762Y1817D01*
X1827D01*
G01X1878D02*
Y1942D01*
X1918Y1838D01*
X1959Y1942D01*
Y1817D01*
G01X2002D02*
Y1942D01*
X2042Y1838D01*
X2083Y1942D01*
Y1817D01*
G01X1546Y2098D02*
Y2223D01*
X1528Y2198D01*
G01Y2098D02*
X1565D01*
G01X1670Y2094D02*
X1667Y2096D01*
Y2100D01*
X1670Y2102D01*
X1674Y2100D01*
Y2096D01*
X1670Y2094D01*
G01X1760Y2123D02*
X1770Y2108D01*
X1782Y2100D01*
X1796Y2098D01*
X1808Y2100D01*
X1821Y2110D01*
X1829Y2123D01*
X1830Y2136D01*
X1827Y2150D01*
X1816Y2160D01*
X1805Y2165D01*
X1791D01*
G01X1805D02*
X1815Y2171D01*
X1822Y2181D01*
X1826Y2194D01*
X1822Y2206D01*
X1815Y2217D01*
X1801Y2223D01*
X1787Y2221D01*
X1773Y2213D01*
G01X1878Y2098D02*
Y2223D01*
X1918Y2119D01*
X1959Y2223D01*
Y2098D01*
G01X2002D02*
Y2223D01*
X2042Y2119D01*
X2083Y2223D01*
Y2098D01*
G01X1546Y2379D02*
Y2504D01*
X1528Y2479D01*
G01Y2379D02*
X1565D01*
G01X1670Y2375D02*
X1667Y2377D01*
Y2381D01*
X1670Y2383D01*
X1674Y2381D01*
Y2377D01*
X1670Y2375D01*
G01X1794Y2504D02*
X1782Y2500D01*
X1773Y2489D01*
X1767Y2477D01*
X1762Y2460D01*
X1760Y2441D01*
X1762Y2423D01*
X1767Y2406D01*
X1773Y2394D01*
X1782Y2383D01*
X1794Y2379D01*
X1807Y2383D01*
X1816Y2394D01*
X1822Y2406D01*
X1827Y2423D01*
X1829Y2441D01*
X1827Y2460D01*
X1822Y2477D01*
X1816Y2489D01*
X1807Y2500D01*
X1794Y2504D01*
G01X1878Y2379D02*
Y2504D01*
X1918Y2400D01*
X1959Y2504D01*
Y2379D01*
G01X2002D02*
Y2504D01*
X2042Y2400D01*
X2083Y2504D01*
Y2379D01*
G01X1546Y2785D02*
X1534Y2781D01*
X1525Y2770D01*
X1519Y2758D01*
X1514Y2741D01*
X1512Y2722D01*
X1514Y2704D01*
X1519Y2687D01*
X1525Y2675D01*
X1534Y2664D01*
X1546Y2660D01*
X1559Y2664D01*
X1568Y2675D01*
X1574Y2687D01*
X1579Y2704D01*
X1581Y2722D01*
X1579Y2741D01*
X1574Y2758D01*
X1568Y2770D01*
X1559Y2781D01*
X1546Y2785D01*
G01X1670Y2656D02*
X1667Y2658D01*
Y2662D01*
X1670Y2664D01*
X1674Y2662D01*
Y2658D01*
X1670Y2656D01*
G01X1794Y2660D02*
X1805Y2662D01*
X1818Y2668D01*
X1826Y2679D01*
X1829Y2693D01*
X1826Y2708D01*
X1816Y2720D01*
X1802Y2727D01*
X1787D01*
X1777Y2731D01*
X1770Y2741D01*
X1767Y2756D01*
X1771Y2770D01*
X1782Y2781D01*
X1794Y2785D01*
X1807Y2781D01*
X1818Y2770D01*
X1822Y2756D01*
X1819Y2741D01*
X1812Y2731D01*
X1802Y2727D01*
X1787D01*
X1773Y2720D01*
X1764Y2708D01*
X1760Y2693D01*
X1764Y2679D01*
X1771Y2668D01*
X1784Y2662D01*
X1794Y2660D01*
G01X1878D02*
Y2785D01*
X1918Y2681D01*
X1959Y2785D01*
Y2660D01*
G01X2002D02*
Y2785D01*
X2042Y2681D01*
X2083Y2785D01*
Y2660D01*
G01X1576Y2973D02*
X1588Y2963D01*
X1602Y2956D01*
X1615D01*
X1627Y2963D01*
X1636Y2973D01*
X1641Y2988D01*
X1638Y3002D01*
X1630Y3015D01*
X1616Y3023D01*
X1598Y3027D01*
X1587Y3036D01*
X1582Y3050D01*
X1585Y3065D01*
X1593Y3075D01*
X1604Y3082D01*
X1615D01*
X1626Y3077D01*
X1635Y3067D01*
G01X1714Y3082D02*
X1751D01*
G01X1732D02*
Y2956D01*
G01X1714D02*
X1751D01*
G01X1827Y3082D02*
X1886D01*
X1827Y2956D01*
X1886D01*
G01X2011D02*
X1950D01*
Y3082D01*
X2011D01*
G01X1987Y3021D02*
X1950D01*
G01X2740Y3144D02*
Y1739D01*
G01X2782Y1817D02*
Y1942D01*
X2853Y1817D01*
Y1942D01*
G01X2941Y1817D02*
X2929Y1819D01*
X2918Y1827D01*
X2909Y1840D01*
X2903Y1854D01*
X2900Y1871D01*
Y1888D01*
X2903Y1904D01*
X2909Y1919D01*
X2918Y1932D01*
X2929Y1940D01*
X2941Y1942D01*
X2954Y1940D01*
X2965Y1932D01*
X2974Y1919D01*
X2980Y1904D01*
X2983Y1888D01*
Y1871D01*
X2980Y1854D01*
X2974Y1840D01*
X2965Y1827D01*
X2954Y1819D01*
X2941Y1817D01*
G01X3030D02*
Y1942D01*
X3101Y1817D01*
Y1942D01*
G01X3169Y1859D02*
X3210D01*
G01X3282Y1817D02*
Y1942D01*
X3320D01*
X3332Y1936D01*
X3341Y1921D01*
X3344Y1904D01*
X3341Y1888D01*
X3334Y1875D01*
X3320Y1869D01*
X3282D01*
G01X3406Y1942D02*
Y1817D01*
X3468D01*
G01X3523D02*
X3561Y1942D01*
X3600Y1817D01*
G01X3586Y1861D02*
X3537D01*
G01X3685Y1942D02*
Y1817D01*
G01X3650Y1942D02*
X3721D01*
G01X3840Y1817D02*
X3778D01*
Y1942D01*
X3840D01*
G01X3816Y1882D02*
X3778D01*
G01X3899Y1817D02*
Y1942D01*
X3930D01*
X3943Y1936D01*
X3952Y1927D01*
X3960Y1915D01*
X3966Y1900D01*
X3968Y1879D01*
X3966Y1859D01*
X3960Y1844D01*
X3952Y1832D01*
X3943Y1823D01*
X3930Y1817D01*
X3899D01*
G01X3034Y2098D02*
Y2223D01*
X3072D01*
X3084Y2217D01*
X3093Y2202D01*
X3097Y2186D01*
X3093Y2169D01*
X3086Y2156D01*
X3072Y2150D01*
X3034D01*
G01X3158Y2223D02*
Y2098D01*
X3220D01*
G01X3275D02*
X3313Y2223D01*
X3352Y2098D01*
G01X3338Y2142D02*
X3289D01*
G01X3437Y2223D02*
Y2098D01*
G01X3402Y2223D02*
X3473D01*
G01X3593Y2098D02*
X3530D01*
Y2223D01*
X3593D01*
G01X3568Y2163D02*
X3530D01*
G01X3651Y2098D02*
Y2223D01*
X3682D01*
X3695Y2217D01*
X3704Y2208D01*
X3712Y2196D01*
X3718Y2181D01*
X3720Y2160D01*
X3718Y2140D01*
X3712Y2125D01*
X3704Y2113D01*
X3695Y2104D01*
X3682Y2098D01*
X3651D01*
G01X3034Y2379D02*
Y2504D01*
X3072D01*
X3084Y2498D01*
X3093Y2483D01*
X3097Y2466D01*
X3093Y2450D01*
X3086Y2437D01*
X3072Y2431D01*
X3034D01*
G01X3158Y2504D02*
Y2379D01*
X3220D01*
G01X3275D02*
X3313Y2504D01*
X3352Y2379D01*
G01X3338Y2423D02*
X3289D01*
G01X3437Y2504D02*
Y2379D01*
G01X3402Y2504D02*
X3473D01*
G01X3593Y2379D02*
X3530D01*
Y2504D01*
X3593D01*
G01X3568Y2444D02*
X3530D01*
G01X3651Y2379D02*
Y2504D01*
X3682D01*
X3695Y2498D01*
X3704Y2489D01*
X3712Y2477D01*
X3718Y2462D01*
X3720Y2441D01*
X3718Y2421D01*
X3712Y2406D01*
X3704Y2394D01*
X3695Y2385D01*
X3682Y2379D01*
X3651D01*
G01X3034Y2660D02*
Y2785D01*
X3072D01*
X3084Y2779D01*
X3093Y2764D01*
X3097Y2748D01*
X3093Y2731D01*
X3086Y2718D01*
X3072Y2712D01*
X3034D01*
G01X3158Y2785D02*
Y2660D01*
X3220D01*
G01X3275D02*
X3313Y2785D01*
X3352Y2660D01*
G01X3338Y2704D02*
X3289D01*
G01X3437Y2785D02*
Y2660D01*
G01X3402Y2785D02*
X3473D01*
G01X3593Y2660D02*
X3530D01*
Y2785D01*
X3593D01*
G01X3568Y2725D02*
X3530D01*
G01X3651Y2660D02*
Y2785D01*
X3682D01*
X3695Y2779D01*
X3704Y2770D01*
X3712Y2758D01*
X3718Y2743D01*
X3720Y2722D01*
X3718Y2702D01*
X3712Y2687D01*
X3704Y2675D01*
X3695Y2666D01*
X3682Y2660D01*
X3651D01*
G01X3034Y2956D02*
Y3082D01*
X3072D01*
X3084Y3075D01*
X3093Y3061D01*
X3097Y3044D01*
X3093Y3027D01*
X3086Y3015D01*
X3072Y3009D01*
X3034D01*
G01X3158Y3082D02*
Y2956D01*
X3220D01*
G01X3275D02*
X3313Y3082D01*
X3352Y2956D01*
G01X3338Y3000D02*
X3289D01*
G01X3437Y3082D02*
Y2956D01*
G01X3402Y3082D02*
X3473D01*
G01X3593Y2956D02*
X3530D01*
Y3082D01*
X3593D01*
G01X3568Y3021D02*
X3530D01*
G01X3651Y2956D02*
Y3082D01*
X3682D01*
X3695Y3075D01*
X3704Y3067D01*
X3712Y3054D01*
X3718Y3040D01*
X3720Y3019D01*
X3718Y2998D01*
X3712Y2984D01*
X3704Y2971D01*
X3695Y2963D01*
X3682Y2956D01*
X3651D01*
G01X4011Y3144D02*
Y1739D01*
G01X4307Y2483D02*
X4316Y2496D01*
X4327Y2502D01*
X4340Y2504D01*
X4355Y2500D01*
X4366Y2489D01*
X4369Y2477D01*
X4368Y2464D01*
X4361Y2454D01*
X4330Y2433D01*
X4316Y2419D01*
X4307Y2398D01*
X4304Y2379D01*
X4369D01*
G01X4460Y2504D02*
X4448Y2500D01*
X4439Y2489D01*
X4433Y2477D01*
X4428Y2460D01*
X4426Y2441D01*
X4428Y2423D01*
X4433Y2406D01*
X4439Y2394D01*
X4448Y2383D01*
X4460Y2379D01*
X4473Y2383D01*
X4482Y2394D01*
X4488Y2406D01*
X4493Y2423D01*
X4495Y2441D01*
X4493Y2460D01*
X4488Y2477D01*
X4482Y2489D01*
X4473Y2500D01*
X4460Y2504D01*
G01X4302Y2685D02*
X4312Y2670D01*
X4324Y2662D01*
X4338Y2660D01*
X4350Y2662D01*
X4363Y2672D01*
X4371Y2685D01*
X4372Y2698D01*
X4369Y2712D01*
X4358Y2722D01*
X4347Y2727D01*
X4333D01*
G01X4347D02*
X4357Y2733D01*
X4364Y2743D01*
X4368Y2756D01*
X4364Y2768D01*
X4357Y2779D01*
X4343Y2785D01*
X4329Y2783D01*
X4315Y2775D01*
G01X4431Y2764D02*
X4440Y2777D01*
X4451Y2783D01*
X4464Y2785D01*
X4479Y2781D01*
X4490Y2770D01*
X4493Y2758D01*
X4492Y2745D01*
X4485Y2735D01*
X4454Y2714D01*
X4440Y2700D01*
X4431Y2679D01*
X4428Y2660D01*
X4493D01*
G01X4274Y2956D02*
X4262Y2959D01*
X4251Y2967D01*
X4242Y2979D01*
X4236Y2994D01*
X4233Y3011D01*
Y3027D01*
X4236Y3044D01*
X4242Y3059D01*
X4251Y3071D01*
X4262Y3079D01*
X4274Y3082D01*
X4287Y3079D01*
X4298Y3071D01*
X4307Y3059D01*
X4313Y3044D01*
X4316Y3027D01*
Y3011D01*
X4313Y2994D01*
X4307Y2979D01*
X4298Y2967D01*
X4287Y2959D01*
X4274Y2956D01*
G01X4287Y2990D02*
X4306Y2956D01*
G01X4398Y3082D02*
Y2956D01*
G01X4363Y3082D02*
X4434D01*
G01X4522Y2956D02*
Y3013D01*
X4492Y3082D01*
G01X4554D02*
X4522Y3013D01*
G01X4417Y1817D02*
Y1942D01*
X4360Y1852D01*
X4437D01*
G01X4417Y2098D02*
Y2223D01*
X4360Y2133D01*
X4437D01*
M02*
