G04 ================== begin FILE IDENTIFICATION RECORD ==================*
G04 Layout Name:  D:\AShrisha_design\sampath\ZIG_BE_ADD_ON\pcb\xbee_addon-3.brd*
G04 Film Name:    SILKSCREEN_TOP*
G04 File Format:  Gerber RS274X*
G04 File Origin:  15.2-p002*
G04 Origin Date:  Wed Mar 12 15:10:53 2014*
G04 ================== end FILE IDENTIFICATION RECORD ====================*
%FSLAX53Y53*MOIN*%
%IR0*IPPOS*OFA0.00000B0.00000*MIA0B0*SFA1.00000B1.00000*%
%ADD10C,.007874*%
%ADD11C,.01*%
G75*
%LPD*%
G75*
G54D10*
G01X1354Y116D02*
Y1100D01*
X350D01*
X55Y805D01*
Y411D01*
X350Y116D01*
X1354D01*
G54D11*
G01X0Y0D02*
X2675D01*
Y1200D01*
X0D01*
Y0D01*
G01X106Y-144D02*
X111Y-148D01*
X117Y-150D01*
X123D01*
X128Y-148D01*
X132Y-144D01*
X134Y-139D01*
X133Y-134D01*
X129Y-129D01*
X123Y-126D01*
X115Y-124D01*
X111Y-122D01*
X109Y-116D01*
X110Y-111D01*
X113Y-107D01*
X118Y-105D01*
X123D01*
X127Y-106D01*
X131Y-110D01*
G01X158Y-105D02*
X174D01*
G01X166D02*
Y-150D01*
G01X158D02*
X174D01*
G01X199Y-105D02*
Y-150D01*
X225D01*
G01X243D02*
Y-105D01*
G01X269D02*
X243Y-133D01*
G01X273Y-150D02*
X255Y-120D01*
G01X290Y-144D02*
X295Y-148D01*
X301Y-150D01*
X307D01*
X312Y-148D01*
X316Y-144D01*
X318Y-139D01*
X317Y-134D01*
X313Y-129D01*
X307Y-126D01*
X299Y-124D01*
X295Y-122D01*
X293Y-116D01*
X294Y-111D01*
X297Y-107D01*
X302Y-105D01*
X307D01*
X311Y-106D01*
X315Y-110D01*
G01X365Y-109D02*
X361Y-106D01*
X356Y-105D01*
X351D01*
X345Y-107D01*
X340Y-111D01*
X337Y-116D01*
X334Y-123D01*
X333Y-130D01*
X335Y-136D01*
X337Y-141D01*
X341Y-146D01*
X345Y-148D01*
X350Y-150D01*
X355D01*
X359Y-148D01*
X363Y-146D01*
X367Y-143D01*
G01X383Y-150D02*
Y-105D01*
X399D01*
X405Y-107D01*
X408Y-110D01*
X409Y-116D01*
X408Y-122D01*
X404Y-126D01*
X399Y-128D01*
X383D01*
G01X399D02*
X409Y-150D01*
G01X455D02*
X429D01*
Y-105D01*
X455D01*
G01X445Y-127D02*
X429D01*
G01X501Y-150D02*
X475D01*
Y-105D01*
X501D01*
G01X491Y-127D02*
X475D01*
G01X519Y-150D02*
Y-105D01*
X549Y-150D01*
Y-105D01*
G01X617Y-135D02*
X635D01*
G01X718Y-105D02*
Y-150D01*
G01X703Y-105D02*
X733D01*
G01X764Y-150D02*
X759Y-149D01*
X754Y-146D01*
X750Y-142D01*
X747Y-136D01*
X746Y-130D01*
Y-124D01*
X747Y-119D01*
X750Y-113D01*
X754Y-109D01*
X759Y-106D01*
X764Y-105D01*
X769Y-106D01*
X774Y-109D01*
X778Y-113D01*
X781Y-119D01*
X782Y-124D01*
Y-130D01*
X781Y-136D01*
X778Y-142D01*
X774Y-146D01*
X769Y-149D01*
X764Y-150D01*
G01X797D02*
Y-105D01*
X813D01*
X818Y-107D01*
X822Y-112D01*
X823Y-119D01*
X822Y-124D01*
X819Y-129D01*
X813Y-131D01*
X797D01*
G01X55Y880D02*
X87D01*
X94Y883D01*
X98Y888D01*
X100Y895D01*
X98Y902D01*
X94Y907D01*
X87Y910D01*
X55D01*
G01X62Y928D02*
X58Y932D01*
X56Y937D01*
X55Y942D01*
X56Y949D01*
X60Y954D01*
X65Y955D01*
X69Y954D01*
X73Y952D01*
X80Y938D01*
X86Y932D01*
X93Y928D01*
X100Y927D01*
Y955D01*
G01X157Y1300D02*
X0Y1275D01*
X157Y1250D01*
Y1300D01*
G01X1224Y1275D02*
X0D01*
G01Y1298D02*
Y1373D01*
G01X322Y78D02*
X277D01*
X286Y70D01*
G01X322D02*
Y86D01*
G01X525Y425D02*
Y350D01*
X225D01*
Y450D01*
X500D01*
X525Y425D01*
G01X360Y516D02*
X356Y518D01*
X351Y520D01*
X346D01*
X340Y518D01*
X335Y514D01*
X332Y509D01*
X329Y502D01*
X328Y495D01*
X330Y488D01*
X332Y484D01*
X336Y479D01*
X340Y477D01*
X345Y475D01*
X350D01*
X354Y477D01*
X358Y479D01*
X362Y482D01*
G01X399Y475D02*
Y520D01*
X374Y488D01*
X408D01*
G01X578Y725D02*
G02I-103J0D01*
G01X415Y665D02*
Y705D01*
G01X395Y685D02*
X435D01*
G01X460Y916D02*
X456Y918D01*
X451Y920D01*
X446D01*
X440Y918D01*
X435Y914D01*
X432Y909D01*
X429Y902D01*
X428Y895D01*
X430Y889D01*
X432Y884D01*
X436Y879D01*
X440Y876D01*
X445Y875D01*
X450D01*
X454Y876D01*
X458Y879D01*
X462Y882D01*
G01X478Y912D02*
X482Y917D01*
X487Y919D01*
X492Y920D01*
X499Y918D01*
X504Y915D01*
X505Y910D01*
X504Y906D01*
X502Y902D01*
X488Y895D01*
X482Y889D01*
X478Y882D01*
X477Y875D01*
X505D01*
G01X289Y1104D02*
X284Y1108D01*
X282Y1112D01*
X281Y1118D01*
X283Y1124D01*
X287Y1129D01*
X291Y1130D01*
X296Y1130D01*
X299Y1127D01*
X307Y1114D01*
X312Y1108D01*
X320Y1104D01*
X326Y1102D01*
Y1130D01*
G01X281Y1162D02*
X283Y1157D01*
X287Y1153D01*
X291Y1150D01*
X297Y1148D01*
X304Y1148D01*
X311Y1148D01*
X317Y1150D01*
X321Y1153D01*
X325Y1157D01*
X326Y1162D01*
X325Y1168D01*
X321Y1172D01*
X317Y1174D01*
X311Y1176D01*
X304Y1177D01*
X297Y1176D01*
X291Y1174D01*
X287Y1172D01*
X283Y1168D01*
X281Y1162D01*
G01X675Y575D02*
X600D01*
Y875D01*
X700D01*
Y600D01*
X675Y575D01*
G01X635Y941D02*
X631Y944D01*
X626Y945D01*
X621D01*
X615Y943D01*
X610Y939D01*
X607Y934D01*
X604Y927D01*
X603Y920D01*
X605Y914D01*
X607Y909D01*
X611Y904D01*
X615Y902D01*
X620Y900D01*
X625D01*
X629Y902D01*
X633Y904D01*
X637Y907D01*
G01X651Y909D02*
X655Y904D01*
X661Y901D01*
X667Y900D01*
X672Y901D01*
X677Y904D01*
X681Y909D01*
X681Y914D01*
X680Y919D01*
X675Y922D01*
X671Y924D01*
X665D01*
G01X671D02*
X675Y926D01*
X678Y930D01*
X679Y934D01*
X678Y939D01*
X675Y943D01*
X669Y945D01*
X663Y944D01*
X657Y941D01*
G01X457Y1170D02*
X483D01*
X457Y1125D01*
X483D01*
G01X508Y1170D02*
X524D01*
G01X516D02*
Y1125D01*
G01X508D02*
X524D01*
G01X566Y1147D02*
X579D01*
Y1134D01*
X575Y1129D01*
X571Y1126D01*
X564Y1125D01*
X557Y1126D01*
X553Y1129D01*
X549Y1134D01*
X546Y1139D01*
X545Y1145D01*
Y1150D01*
X546Y1155D01*
X549Y1160D01*
X553Y1165D01*
X557Y1168D01*
X562Y1170D01*
X567D01*
X572Y1168D01*
X576Y1166D01*
G01X613Y1149D02*
X616Y1151D01*
X618Y1155D01*
X619Y1160D01*
X618Y1165D01*
X615Y1168D01*
X611Y1170D01*
X593D01*
Y1125D01*
X615D01*
X619Y1128D01*
X622Y1132D01*
X623Y1138D01*
X622Y1143D01*
X618Y1147D01*
X613Y1149D01*
X593D01*
G01X667Y1125D02*
X641D01*
Y1170D01*
X667D01*
G01X657Y1148D02*
X641D01*
G01X713Y1125D02*
X687D01*
Y1170D01*
X713D01*
G01X703Y1148D02*
X687D01*
G01X726Y1110D02*
X766D01*
G01X775Y1125D02*
X792Y1170D01*
X809Y1125D01*
G01X803Y1141D02*
X781D01*
G01X823Y1125D02*
Y1170D01*
X837D01*
X842Y1168D01*
X846Y1165D01*
X849Y1160D01*
X852Y1155D01*
X853Y1147D01*
X852Y1140D01*
X849Y1135D01*
X846Y1130D01*
X842Y1127D01*
X837Y1125D01*
X823D01*
G01X869D02*
Y1170D01*
X883D01*
X888Y1168D01*
X892Y1165D01*
X895Y1160D01*
X898Y1155D01*
X899Y1147D01*
X898Y1140D01*
X895Y1135D01*
X892Y1130D01*
X888Y1127D01*
X883Y1125D01*
X869D01*
G01X930D02*
X925Y1126D01*
X920Y1129D01*
X916Y1133D01*
X913Y1138D01*
X912Y1144D01*
Y1150D01*
X913Y1156D01*
X916Y1162D01*
X920Y1166D01*
X925Y1169D01*
X930Y1170D01*
X935Y1169D01*
X940Y1166D01*
X944Y1162D01*
X947Y1156D01*
X948Y1150D01*
Y1144D01*
X947Y1138D01*
X944Y1133D01*
X940Y1129D01*
X935Y1126D01*
X930Y1125D01*
G01X961D02*
Y1170D01*
X991Y1125D01*
Y1170D01*
G01X1002Y1110D02*
X1042D01*
G01X1051Y1170D02*
X1068Y1125D01*
X1085Y1170D01*
G01X1114Y1125D02*
Y1170D01*
X1106Y1161D01*
G01Y1125D02*
X1122D01*
G01X1160Y1124D02*
X1159Y1124D01*
Y1126D01*
X1160Y1126D01*
X1161Y1126D01*
Y1124D01*
X1160Y1124D01*
G01X1206Y1125D02*
Y1170D01*
X1198Y1161D01*
G01Y1125D02*
X1214D01*
G01X1067Y43D02*
X1022D01*
X1031Y35D01*
G01X1067D02*
Y51D01*
G01X1022Y89D02*
X1023Y83D01*
X1027Y79D01*
X1031Y77D01*
X1037Y75D01*
X1044Y74D01*
X1051Y75D01*
X1057Y77D01*
X1061Y79D01*
X1065Y83D01*
X1067Y89D01*
X1065Y94D01*
X1061Y98D01*
X1057Y101D01*
X1051Y103D01*
X1044Y103D01*
X1037Y103D01*
X1031Y101D01*
X1027Y98D01*
X1023Y94D01*
X1022Y89D01*
G01X1200Y575D02*
X1125D01*
Y875D01*
X1225D01*
Y600D01*
X1200Y575D01*
G01X1160Y941D02*
X1156Y944D01*
X1151Y945D01*
X1146D01*
X1140Y943D01*
X1135Y939D01*
X1132Y934D01*
X1129Y927D01*
X1128Y920D01*
X1130Y914D01*
X1132Y909D01*
X1136Y904D01*
X1140Y902D01*
X1145Y900D01*
X1150D01*
X1154Y902D01*
X1158Y904D01*
X1162Y907D01*
G01X1191Y900D02*
Y945D01*
X1183Y936D01*
G01Y900D02*
X1199D01*
G01X1150Y1020D02*
X1105D01*
X1114Y1012D01*
G01X1150D02*
Y1028D01*
G01Y1066D02*
X1105D01*
X1114Y1058D01*
G01X1150D02*
Y1074D01*
G01X1270Y1271D02*
X1275Y1276D01*
X1279Y1280D01*
X1284Y1281D01*
X1289Y1280D01*
X1292Y1276D01*
X1295Y1272D01*
X1296Y1267D01*
X1295Y1262D01*
X1292Y1258D01*
X1288Y1254D01*
X1284Y1252D01*
X1278Y1254D01*
X1274Y1258D01*
X1271Y1265D01*
X1270Y1273D01*
X1272Y1282D01*
X1274Y1288D01*
X1277Y1293D01*
X1282Y1297D01*
X1286Y1298D01*
X1291Y1296D01*
X1294Y1292D01*
G01X1328Y1252D02*
X1329Y1262D01*
X1331Y1270D01*
X1334Y1278D01*
X1337Y1286D01*
X1342Y1298D01*
X1316D01*
G01X1375Y1251D02*
X1374Y1252D01*
Y1253D01*
X1375Y1254D01*
X1376Y1253D01*
Y1252D01*
X1375Y1251D01*
G01X1410Y1258D02*
X1414Y1254D01*
X1420Y1252D01*
X1425Y1254D01*
X1430Y1258D01*
X1433Y1265D01*
X1434Y1272D01*
Y1280D01*
X1433Y1287D01*
X1430Y1293D01*
X1426Y1296D01*
X1421Y1298D01*
X1416Y1296D01*
X1412Y1293D01*
X1409Y1289D01*
X1408Y1282D01*
X1409Y1277D01*
X1412Y1272D01*
X1416Y1269D01*
X1421Y1268D01*
X1426Y1270D01*
X1430Y1274D01*
X1434Y1280D01*
G01X1452Y1259D02*
X1456Y1255D01*
X1461Y1253D01*
X1467Y1252D01*
X1473Y1254D01*
X1478Y1257D01*
X1481Y1262D01*
X1482Y1268D01*
X1480Y1274D01*
X1477Y1278D01*
X1472Y1281D01*
X1468Y1282D01*
X1463Y1281D01*
X1457Y1278D01*
X1459Y1298D01*
X1477D01*
G01X1653Y125D02*
G03I-103J0D01*
G01X1490Y65D02*
Y105D01*
G01X1470Y85D02*
X1510D01*
G01X1820Y235D02*
X1580D01*
Y315D01*
X1820D01*
Y235D01*
G01X1545Y275D02*
X1580D01*
G01X1360Y405D02*
Y645D01*
X1440D01*
Y405D01*
X1360D01*
G01X1400D02*
Y370D01*
G01X1482Y475D02*
Y520D01*
X1498D01*
X1504Y518D01*
X1507Y515D01*
X1508Y509D01*
X1507Y503D01*
X1503Y499D01*
X1498Y497D01*
X1482D01*
G01X1498D02*
X1508Y475D01*
G01X1541D02*
X1546Y476D01*
X1551Y478D01*
X1554Y482D01*
X1556Y487D01*
X1554Y492D01*
X1550Y497D01*
X1544Y499D01*
X1538D01*
X1534Y501D01*
X1530Y504D01*
X1529Y509D01*
X1531Y515D01*
X1536Y518D01*
X1541Y520D01*
X1546Y518D01*
X1551Y515D01*
X1553Y509D01*
X1552Y504D01*
X1548Y501D01*
X1544Y499D01*
X1538D01*
X1532Y497D01*
X1528Y492D01*
X1526Y487D01*
X1528Y482D01*
X1531Y478D01*
X1536Y476D01*
X1541Y475D01*
G01X1580Y640D02*
X1820D01*
Y560D01*
X1580D01*
Y640D01*
G01Y600D02*
X1545D01*
G01X1580Y440D02*
X1820D01*
Y360D01*
X1580D01*
Y440D01*
G01Y400D02*
X1545D01*
G01X1400Y680D02*
Y645D01*
G01X1580Y740D02*
X1820D01*
Y660D01*
X1580D01*
Y740D01*
G01Y700D02*
X1545D01*
G01X1580Y940D02*
X1820D01*
Y860D01*
X1580D01*
Y940D01*
G01Y900D02*
X1545D01*
G01X1382D02*
Y945D01*
X1398D01*
X1404Y943D01*
X1407Y940D01*
X1408Y934D01*
X1407Y928D01*
X1403Y924D01*
X1398Y922D01*
X1382D01*
G01X1398D02*
X1408Y900D01*
G01X1426Y909D02*
X1430Y904D01*
X1436Y901D01*
X1442Y900D01*
X1447Y901D01*
X1452Y904D01*
X1456Y909D01*
X1456Y914D01*
X1455Y919D01*
X1450Y922D01*
X1446Y924D01*
X1440D01*
G01X1446D02*
X1450Y926D01*
X1453Y930D01*
X1454Y934D01*
X1453Y939D01*
X1450Y943D01*
X1444Y945D01*
X1438Y944D01*
X1432Y941D01*
G01X1580Y840D02*
X1820D01*
Y760D01*
X1580D01*
Y840D01*
G01Y800D02*
X1545D01*
G01X1382Y825D02*
Y870D01*
X1398D01*
X1404Y868D01*
X1407Y865D01*
X1408Y859D01*
X1407Y853D01*
X1403Y849D01*
X1398Y847D01*
X1382D01*
G01X1398D02*
X1408Y825D01*
G01X1449D02*
Y870D01*
X1424Y838D01*
X1458D01*
G01X1650Y1080D02*
X1605D01*
Y1094D01*
X1607Y1099D01*
X1610Y1103D01*
X1615Y1106D01*
X1620Y1109D01*
X1628Y1110D01*
X1635Y1109D01*
X1640Y1106D01*
X1645Y1103D01*
X1648Y1099D01*
X1650Y1094D01*
Y1080D01*
G01Y1149D02*
X1605D01*
X1637Y1124D01*
Y1158D01*
G01X1590Y975D02*
G03X1600Y1065I-43J50D01*
G01X1500D02*
G03X1510Y975I49J-40D01*
G01X1600Y1065D02*
X1590D01*
G01X1510D02*
X1500D01*
G01X1450Y980D02*
X1405D01*
Y994D01*
X1407Y999D01*
X1410Y1003D01*
X1415Y1006D01*
X1420Y1009D01*
X1428Y1010D01*
X1435Y1009D01*
X1440Y1006D01*
X1445Y1003D01*
X1448Y999D01*
X1450Y994D01*
Y980D01*
G01Y1041D02*
X1405D01*
X1414Y1033D01*
G01X1450D02*
Y1049D01*
G01X1457Y1125D02*
Y1170D01*
X1473D01*
X1478Y1168D01*
X1482Y1162D01*
X1483Y1156D01*
X1482Y1150D01*
X1479Y1146D01*
X1473Y1144D01*
X1457D01*
G01X1496Y1170D02*
X1505Y1125D01*
X1516Y1170D01*
X1527Y1125D01*
X1536Y1170D01*
G01X1549Y1125D02*
Y1170D01*
X1565D01*
X1571Y1168D01*
X1574Y1165D01*
X1575Y1159D01*
X1574Y1153D01*
X1570Y1149D01*
X1565Y1147D01*
X1549D01*
G01X1565D02*
X1575Y1125D01*
G01X1526Y1275D02*
X2675D01*
G01X1710Y116D02*
X1706Y119D01*
X1701Y120D01*
X1696D01*
X1690Y118D01*
X1685Y114D01*
X1682Y109D01*
X1679Y102D01*
X1678Y95D01*
X1680Y88D01*
X1682Y84D01*
X1686Y79D01*
X1690Y76D01*
X1695Y75D01*
X1700D01*
X1704Y76D01*
X1708Y79D01*
X1712Y82D01*
G01X1726D02*
X1730Y78D01*
X1735Y76D01*
X1741Y75D01*
X1747Y76D01*
X1752Y79D01*
X1755Y85D01*
X1756Y91D01*
X1754Y97D01*
X1751Y100D01*
X1746Y103D01*
X1742Y104D01*
X1737Y103D01*
X1731Y100D01*
X1733Y120D01*
X1751D01*
G01X1820Y275D02*
X1855D01*
G01Y600D02*
X1820D01*
G01X1855Y400D02*
X1820D01*
G01X1855Y700D02*
X1820D01*
G01X1855Y900D02*
X1820D01*
G01X1855Y800D02*
X1820D01*
G01X1740Y975D02*
G03X1750Y1065I-43J50D01*
G01X1650D02*
G03X1660Y975I49J-40D01*
G01X1750Y1065D02*
X1740D01*
G01X1660D02*
X1650D01*
G01X1890Y975D02*
G03X1900Y1065I-43J50D01*
G01X1800D02*
G03X1810Y975I49J-40D01*
G01X1900Y1065D02*
X1890D01*
G01X1810D02*
X1800D01*
G01X1900Y975D02*
X1950Y925D01*
G01X1820Y1170D02*
Y1125D01*
G01X1805Y1170D02*
X1835D01*
G01X1852Y1125D02*
X1880Y1170D01*
G01X1852D02*
X1880Y1125D01*
G01X1682D02*
Y1170D01*
X1698D01*
X1704Y1168D01*
X1707Y1165D01*
X1708Y1159D01*
X1707Y1153D01*
X1703Y1149D01*
X1698Y1147D01*
X1682D01*
G01X1698D02*
X1708Y1125D01*
G01X1728D02*
Y1170D01*
X1754D01*
G01X1744Y1148D02*
X1728D01*
G01X1957Y275D02*
Y320D01*
X1973D01*
X1979Y318D01*
X1982Y315D01*
X1983Y309D01*
X1982Y303D01*
X1978Y299D01*
X1973Y297D01*
X1957D01*
G01X1973D02*
X1983Y275D01*
G01X2015D02*
X2016Y285D01*
X2018Y293D01*
X2021Y300D01*
X2024Y309D01*
X2029Y320D01*
X2003D01*
G01X2224Y297D02*
X2237D01*
Y284D01*
X2233Y279D01*
X2229Y276D01*
X2222Y275D01*
X2215Y276D01*
X2211Y279D01*
X2207Y284D01*
X2204Y289D01*
X2203Y295D01*
Y300D01*
X2204Y305D01*
X2207Y310D01*
X2211Y315D01*
X2215Y318D01*
X2220Y320D01*
X2225D01*
X2230Y318D01*
X2234Y316D01*
G01X2251Y275D02*
Y320D01*
X2281Y275D01*
Y320D01*
G01X2297Y275D02*
Y320D01*
X2311D01*
X2316Y318D01*
X2320Y315D01*
X2323Y310D01*
X2326Y305D01*
X2327Y297D01*
X2326Y290D01*
X2323Y285D01*
X2320Y280D01*
X2316Y277D01*
X2311Y275D01*
X2297D01*
G01X1957Y600D02*
Y645D01*
X1973D01*
X1979Y643D01*
X1982Y640D01*
X1983Y634D01*
X1982Y628D01*
X1978Y624D01*
X1973Y622D01*
X1957D01*
G01X1973D02*
X1983Y600D01*
G01X2016D02*
Y645D01*
X2008Y636D01*
G01Y600D02*
X2024D01*
G01X1957Y400D02*
Y445D01*
X1973D01*
X1979Y443D01*
X1982Y440D01*
X1983Y434D01*
X1982Y428D01*
X1978Y424D01*
X1973Y422D01*
X1957D01*
G01X1973D02*
X1983Y400D01*
G01X2001Y407D02*
X2005Y403D01*
X2010Y401D01*
X2016Y400D01*
X2022Y402D01*
X2027Y404D01*
X2030Y410D01*
X2031Y416D01*
X2029Y422D01*
X2026Y426D01*
X2021Y428D01*
X2017Y429D01*
X2012Y428D01*
X2006Y426D01*
X2008Y445D01*
X2026D01*
G01X1957Y700D02*
Y745D01*
X1973D01*
X1979Y743D01*
X1982Y740D01*
X1983Y734D01*
X1982Y728D01*
X1978Y724D01*
X1973Y722D01*
X1957D01*
G01X1973D02*
X1983Y700D01*
G01X2003Y738D02*
X2007Y742D01*
X2012Y744D01*
X2017Y745D01*
X2024Y744D01*
X2029Y740D01*
X2030Y735D01*
X2029Y731D01*
X2027Y727D01*
X2013Y720D01*
X2007Y714D01*
X2003Y707D01*
X2002Y700D01*
X2030D01*
G01X1955Y875D02*
Y920D01*
X1969D01*
X1974Y918D01*
X1978Y915D01*
X1981Y910D01*
X1984Y905D01*
X1985Y897D01*
X1984Y890D01*
X1981Y885D01*
X1978Y880D01*
X1974Y877D01*
X1969Y875D01*
X1955D01*
G01X2001Y884D02*
X2005Y879D01*
X2011Y876D01*
X2017Y875D01*
X2022Y876D01*
X2027Y879D01*
X2031Y884D01*
X2031Y889D01*
X2030Y894D01*
X2025Y897D01*
X2021Y899D01*
X2015D01*
G01X2021D02*
X2025Y901D01*
X2028Y905D01*
X2029Y909D01*
X2028Y914D01*
X2025Y918D01*
X2019Y920D01*
X2013Y919D01*
X2007Y916D01*
G01X2203Y920D02*
X2220Y875D01*
X2237Y920D01*
G01X2281Y916D02*
X2277Y918D01*
X2272Y920D01*
X2267D01*
X2261Y918D01*
X2256Y914D01*
X2253Y909D01*
X2250Y902D01*
X2249Y895D01*
X2251Y889D01*
X2253Y884D01*
X2257Y879D01*
X2261Y876D01*
X2266Y875D01*
X2271D01*
X2275Y876D01*
X2279Y879D01*
X2283Y882D01*
G01X2327Y916D02*
X2323Y918D01*
X2318Y920D01*
X2313D01*
X2307Y918D01*
X2302Y914D01*
X2299Y909D01*
X2296Y902D01*
X2295Y895D01*
X2297Y889D01*
X2299Y884D01*
X2303Y879D01*
X2307Y876D01*
X2312Y875D01*
X2317D01*
X2321Y876D01*
X2325Y879D01*
X2329Y882D01*
G01X2040Y975D02*
G03X2050Y1065I-43J50D01*
G01X1950D02*
G03X1960Y975I49J-40D01*
G01X2050Y1065D02*
X2040D01*
G01X1960D02*
X1950D01*
G01X2125Y980D02*
X2080D01*
Y994D01*
X2082Y999D01*
X2085Y1003D01*
X2090Y1006D01*
X2095Y1009D01*
X2103Y1010D01*
X2110Y1009D01*
X2115Y1006D01*
X2120Y1003D01*
X2123Y999D01*
X2125Y994D01*
Y980D01*
G01X2088Y1028D02*
X2083Y1032D01*
X2081Y1037D01*
X2080Y1042D01*
X2082Y1049D01*
X2085Y1054D01*
X2090Y1055D01*
X2094Y1054D01*
X2098Y1052D01*
X2106Y1038D01*
X2111Y1032D01*
X2118Y1028D01*
X2125Y1027D01*
Y1055D01*
G01X1982Y1125D02*
Y1170D01*
X1998D01*
X2004Y1168D01*
X2007Y1165D01*
X2008Y1159D01*
X2007Y1153D01*
X2003Y1149D01*
X1998Y1147D01*
X1982D01*
G01X1998D02*
X2008Y1125D01*
G01X2027D02*
X2055Y1170D01*
G01X2027D02*
X2055Y1125D01*
G01X2625Y150D02*
X2800D01*
X2875Y225D01*
Y1025D01*
X2375D01*
Y150D01*
X2625D01*
G01X2270Y520D02*
Y475D01*
G01X2255Y520D02*
X2285D01*
G01X2302Y475D02*
X2330Y520D01*
G01X2302D02*
X2330Y475D01*
G01X2257Y675D02*
Y720D01*
X2273D01*
X2279Y718D01*
X2282Y715D01*
X2283Y709D01*
X2282Y703D01*
X2278Y699D01*
X2273Y697D01*
X2257D01*
G01X2273D02*
X2283Y675D01*
G01X2302D02*
X2330Y720D01*
G01X2302D02*
X2330Y675D01*
G01X2457Y1084D02*
X2460Y1079D01*
X2464Y1076D01*
X2469Y1075D01*
X2474Y1076D01*
X2478Y1079D01*
X2482Y1084D01*
X2483Y1090D01*
Y1120D01*
G01X2502Y1081D02*
X2507Y1077D01*
X2513Y1075D01*
X2519D01*
X2524Y1077D01*
X2528Y1081D01*
X2530Y1086D01*
X2529Y1091D01*
X2525Y1096D01*
X2519Y1099D01*
X2511Y1100D01*
X2507Y1103D01*
X2505Y1109D01*
X2506Y1114D01*
X2509Y1118D01*
X2514Y1120D01*
X2519D01*
X2523Y1118D01*
X2527Y1115D01*
G01X2562Y1075D02*
Y1120D01*
X2554Y1111D01*
G01Y1075D02*
X2570D01*
G01X2518Y1250D02*
X2675Y1275D01*
X2518Y1300D01*
Y1250D01*
G01X2773Y0D02*
X3123D01*
G01X2773Y1200D02*
X3123D01*
G01X2675Y1298D02*
Y1373D01*
G01X3000Y157D02*
X3025Y0D01*
X3050Y157D01*
X3000D01*
G01X3025Y464D02*
Y0D01*
G01Y586D02*
Y1200D01*
G01X2918Y511D02*
X2922Y506D01*
X2928Y503D01*
X2934Y503D01*
X2939Y503D01*
X2944Y507D01*
X2948Y511D01*
X2948Y516D01*
X2947Y521D01*
X2942Y525D01*
X2938Y526D01*
X2932D01*
G01X2938D02*
X2942Y529D01*
X2945Y532D01*
X2946Y537D01*
X2945Y542D01*
X2942Y545D01*
X2936Y548D01*
X2930Y547D01*
X2924Y544D01*
G01X2979Y548D02*
X2974Y546D01*
X2970Y542D01*
X2967Y538D01*
X2965Y532D01*
X2964Y525D01*
X2965Y518D01*
X2967Y512D01*
X2970Y508D01*
X2974Y504D01*
X2979Y503D01*
X2984Y504D01*
X2988Y508D01*
X2991Y512D01*
X2993Y518D01*
X2994Y525D01*
X2993Y532D01*
X2991Y538D01*
X2988Y542D01*
X2984Y546D01*
X2979Y548D01*
G01X3025Y501D02*
X3024Y502D01*
Y503D01*
X3025Y504D01*
X3026Y503D01*
Y502D01*
X3025Y501D01*
G01X3079Y503D02*
Y548D01*
X3054Y515D01*
X3088D01*
G01X3117Y503D02*
X3122Y503D01*
X3127Y505D01*
X3130Y509D01*
X3132Y514D01*
X3130Y520D01*
X3126Y524D01*
X3120Y526D01*
X3114D01*
X3110Y528D01*
X3106Y532D01*
X3105Y537D01*
X3107Y542D01*
X3112Y546D01*
X3117Y548D01*
X3122Y546D01*
X3127Y542D01*
X3129Y537D01*
X3128Y532D01*
X3124Y528D01*
X3120Y526D01*
X3114D01*
X3108Y524D01*
X3104Y520D01*
X3102Y514D01*
X3104Y509D01*
X3107Y505D01*
X3112Y503D01*
X3117Y503D01*
G01X3050Y1043D02*
X3025Y1200D01*
X3000Y1043D01*
X3050D01*
M02*
